<?xml version="1.0" encoding="UTF-8" standalone="no"?>
<!DOCTYPE svg PUBLIC "-//W3C//DTD SVG 1.1//EN" "http://www.w3.org/Graphics/SVG/1.1/DTD/svg11.dtd">
<svg xmlns="http://www.w3.org/2000/svg" version="1.1" viewBox="0 0 814 585">
<path fill="#4361ee" d="
  M 412.57 104.62
  C 356.90 199.61 301.88 294.98 246.80 390.33
  Q 245.81 392.04 244.31 390.76
  C 227.72 376.67 220.37 360.62 232.22 339.98
  C 286.70 245.12 334.44 162.20 396.81 55.81
  C 404.39 42.89 415.24 42.47 429.25 42.55
  Q 587.75 43.44 746.26 42.50
  Q 748.64 42.49 748.34 44.84
  C 745.50 67.09 730.24 81.30 707.50 81.33
  Q 577.62 81.47 447.75 82.21
  C 429.45 82.32 421.42 89.50 412.57 104.62
  Z"
/>
<path fill="#4361ee" d="
  M 85.00 81.75
  C 70.19 81.75 58.88 77.14 52.83 63.06
  C 50.05 56.61 47.88 52.37 46.75 47.25
  Q 45.94 43.61 49.75 43.61
  Q 193.87 43.50 338.00 43.42
  Q 341.85 43.42 345.57 43.80
  A 1.05 1.05 -83.3 0 1 346.50 44.98
  C 346.22 47.15 345.31 48.53 344.40 50.42
  Q 339.34 61.01 336.69 65.44
  C 328.92 78.41 315.91 81.74 301.50 81.74
  Q 193.25 81.75 85.00 81.75
  Z"
/>
<path fill="#4361ee" d="
  M 462.43 193.60
  C 412.68 278.17 364.16 363.52 315.11 448.50
  C 307.09 462.40 302.42 470.52 293.92 480.52
  A 0.86 0.85 -38.8 0 1 292.51 480.37
  Q 292.04 479.48 291.00 478.21
  Q 281.12 466.15 277.06 453.94
  C 273.93 444.49 279.27 432.46 284.49 423.57
  C 326.85 351.56 395.84 232.32 446.85 147.08
  C 456.57 130.85 464.00 130.20 482.00 130.28
  Q 627.30 130.93 692.44 130.81
  Q 697.36 130.80 696.70 135.44
  C 694.60 150.09 688.51 163.52 672.75 167.00
  C 666.21 168.44 659.38 168.43 652.34 168.54
  Q 558.21 170.12 497.75 169.50
  C 478.67 169.30 471.79 177.69 462.43 193.60
  Z"
/>
<path fill="#4361ee" d="
  M 119.75 168.21
  C 109.49 167.93 100.11 145.97 98.80 137.86
  Q 98.33 135.00 101.23 135.00
  L 287.75 135.00
  A 1.68 1.27 -20.6 0 1 288.66 135.27
  C 291.13 137.07 289.71 139.08 289.00 141.33
  C 285.73 151.72 279.74 163.65 268.78 167.82
  Q 265.08 169.24 258.02 169.32
  Q 188.88 170.09 119.75 168.21
  Z"
/>
<path fill="#4361ee" d="
  M 342.27 566.17
  C 327.28 553.44 322.62 538.16 331.85 520.09
  Q 337.09 509.84 342.75 499.83
  Q 417.78 367.10 495.30 235.80
  C 501.65 225.05 506.46 218.60 520.00 218.50
  Q 582.00 218.03 642.63 218.73
  Q 646.43 218.78 645.83 222.53
  C 643.57 236.57 638.92 249.54 624.00 254.25
  Q 615.90 256.81 609.50 256.95
  Q 574.53 257.72 549.00 257.00
  C 531.62 256.51 522.76 266.99 514.75 280.75
  Q 432.39 422.15 350.11 563.59
  C 349.33 564.93 346.13 571.07 344.28 568.39
  Q 343.42 567.15 342.27 566.17
  Z"
/>
</svg>
